<svg width="472" height="451" viewBox="0 0 472 451" fill="none" xmlns="http://www.w3.org/2000/svg">
<ellipse cx="243.679" cy="225.5" rx="228" ry="225.5" fill="#3C3C3C"/>
<path d="M312.663 146.769C312.663 146.769 325.757 156.246 335.153 160.384C343.473 164.049 357.392 167.27 357.392 167.27C357.392 167.27 350.476 177.611 342.836 181.987C335.256 186.33 321.587 187.938 321.587 187.938C321.587 187.938 311.924 176.63 310.151 167.915C308.44 159.506 312.663 146.769 312.663 146.769Z" fill="white"/>
<path d="M375.466 69.8815C375.466 69.8815 408.278 106.226 410.596 132.103C413.003 158.966 383.532 187.767 383.532 187.767C383.532 187.767 377.627 171.936 365.183 161.821C350.616 149.98 324.607 137.18 316.311 133.229C315.044 132.625 314.757 130.945 315.738 129.942C321.556 123.998 337.957 106.511 340.82 95.4795C345.046 79.1951 349.371 73.0386 349.371 73.0386C349.371 73.0386 356.29 66.4735 362.024 65.8745C367.562 65.2962 375.466 69.8815 375.466 69.8815Z" fill="white"/>
<path d="M274.817 34.1765C361.192 3.7128 367.401 54.4398 367.411 54.5197C367.411 54.5197 326.817 61.6848 307.15 119.833C285.075 185.105 312.331 203.07 316.925 205.567C317.343 205.794 317.676 206.121 317.868 206.555C319.782 210.876 329.891 235.925 325.891 274.732C323.277 300.101 305.807 336.874 305.807 336.874C305.806 336.788 305.38 245.102 249.215 246.267C166.052 247.991 126.599 345.6 126.599 345.6C126.599 345.6 206.357 242.277 258.547 272.177C308.007 300.513 280.166 418.279 280.166 418.279C279.958 418.294 193.564 424.742 132.443 393.902C64.7152 359.728 28.1624 295.115 28.0914 294.99C28.0914 294.99 44.0061 275.29 54.8477 264.713C65.3865 254.431 82.4772 241.653 82.4772 241.653L83.6113 288.272C83.6113 288.272 138.67 82.1948 274.817 34.1765ZM294.285 69.1412C287.007 60.6652 272.263 61.3888 261.352 70.757C250.442 80.1253 247.496 94.5911 254.774 103.067C262.052 111.543 276.797 110.819 287.707 101.451C298.617 92.0831 301.563 77.6172 294.285 69.1412Z" fill="white"/>
<circle cx="279.954" cy="85.9438" r="10.6256" transform="rotate(-6.89856 279.954 85.9438)" fill="white"/>
</svg>
